<svg width="186" height="36" viewBox="0 0 186 36" fill="none" xmlns="http://www.w3.org/2000/svg">
<path d="M161.759 13.6919C162.431 13.6919 163.066 13.7946 163.663 13.9999C164.261 14.2052 164.746 14.5412 165.119 15.0079C165.493 15.4746 165.679 16.1092 165.679 16.9119C165.679 17.6772 165.418 18.3399 164.895 18.8999C164.373 19.4599 163.691 19.9266 162.851 20.2999C162.011 20.6546 161.115 20.9439 160.163 21.1679C159.211 21.3919 158.297 21.5506 157.419 21.6439C157.419 22.8012 157.531 23.7719 157.755 24.5559C157.998 25.3399 158.353 25.9279 158.819 26.3199C159.286 26.7119 159.883 26.9079 160.611 26.9079C161.153 26.9079 161.694 26.7866 162.235 26.5439C162.795 26.3012 163.327 25.9372 163.831 25.4519C164.335 24.9479 164.793 24.3039 165.203 23.5199L166.127 24.0519C165.605 25.0226 165.045 25.8252 164.447 26.4599C163.85 27.0946 163.197 27.5612 162.487 27.8599C161.778 28.1586 160.994 28.3079 160.135 28.3079C158.362 28.3079 157.055 27.7572 156.215 26.6559C155.375 25.5359 154.955 24.0706 154.955 22.2599C154.955 21.1772 155.095 20.1226 155.375 19.0959C155.655 18.0692 156.075 17.1546 156.635 16.3519C157.195 15.5306 157.905 14.8866 158.763 14.4199C159.622 13.9346 160.621 13.6919 161.759 13.6919ZM161.367 14.6439C160.509 14.6439 159.799 14.9332 159.239 15.5119C158.698 16.0906 158.278 16.8372 157.979 17.7519C157.699 18.6666 157.522 19.6279 157.447 20.6359C158.437 20.5052 159.379 20.2719 160.275 19.9359C161.171 19.5999 161.909 19.1706 162.487 18.6479C163.066 18.1066 163.355 17.4812 163.355 16.7719C163.355 16.1746 163.187 15.6706 162.851 15.2599C162.534 14.8492 162.039 14.6439 161.367 14.6439Z" fill="#4A4A4A"/>
<path d="M151.926 6.86011C151.87 7.32677 151.786 7.84944 151.674 8.42811C151.58 9.00677 151.487 9.57611 151.394 10.1361C151.319 10.6961 151.254 11.1908 151.198 11.6201C151.086 12.4041 150.974 13.3001 150.862 14.3081C150.75 15.2974 150.638 16.3334 150.526 17.4161C150.414 18.4801 150.311 19.5254 150.218 20.5521C150.143 21.5788 150.078 22.5214 150.022 23.3801C149.966 24.2201 149.938 24.9108 149.938 25.4521C149.938 25.8068 149.975 26.1428 150.05 26.4601C150.124 26.7588 150.339 26.9081 150.694 26.9081C151.011 26.9081 151.356 26.7121 151.73 26.3201C152.122 25.9094 152.458 25.2001 152.738 24.1921L153.522 24.3881C153.466 24.7054 153.344 25.0881 153.158 25.5361C152.99 25.9841 152.756 26.4228 152.458 26.8521C152.159 27.2628 151.795 27.6081 151.366 27.8881C150.955 28.1681 150.47 28.3081 149.91 28.3081C149.144 28.3081 148.584 28.1214 148.23 27.7481C147.875 27.3561 147.688 26.7868 147.67 26.0401C147.651 25.5734 147.67 24.8828 147.726 23.9681C147.8 23.0534 147.884 22.0174 147.978 20.8601C148.09 19.6841 148.211 18.4614 148.342 17.1921C148.472 15.9041 148.612 14.6534 148.762 13.4401C148.911 12.2268 149.051 11.1254 149.182 10.1361C149.275 9.63211 149.331 9.30544 149.35 9.15611C149.387 8.98811 149.415 8.81077 149.434 8.62411C149.098 8.64277 148.762 8.66144 148.426 8.68011C148.108 8.69877 147.782 8.71744 147.446 8.73611L147.586 7.61611C148.407 7.61611 149.042 7.57877 149.49 7.50411C149.956 7.42944 150.311 7.33611 150.554 7.22411C150.796 7.11211 150.992 6.99077 151.142 6.86011H151.926Z" fill="#4A4A4A"/>
<path d="M139.806 13.6919C140.366 13.6919 140.982 13.7386 141.654 13.8319C142.326 13.9066 142.96 14.0186 143.558 14.1679C143.408 15.2879 143.259 16.4079 143.11 17.5279C142.979 18.6292 142.848 19.6839 142.718 20.6919C142.606 21.6812 142.512 22.5772 142.438 23.3799C142.363 24.1639 142.326 24.7799 142.326 25.2279C142.326 25.6012 142.354 25.9746 142.41 26.3479C142.466 26.7212 142.699 26.9079 143.11 26.9079C143.427 26.9079 143.772 26.7026 144.146 26.2919C144.538 25.8812 144.874 25.1812 145.154 24.1919L145.938 24.3599C145.882 24.6959 145.76 25.0879 145.574 25.5359C145.406 25.9652 145.172 26.3946 144.874 26.8239C144.575 27.2532 144.211 27.6079 143.782 27.8879C143.352 28.1679 142.858 28.3079 142.298 28.3079C141.551 28.3079 141.019 28.0746 140.702 27.6079C140.384 27.1412 140.226 26.5346 140.226 25.7879C140.226 25.2466 140.272 24.6586 140.366 24.0239C140.478 23.3892 140.599 22.7266 140.73 22.0359H140.646C140.198 23.4172 139.731 24.5279 139.246 25.3679C138.779 26.1892 138.303 26.8146 137.818 27.2439C137.351 27.6732 136.894 27.9532 136.446 28.0839C135.998 28.2332 135.578 28.3079 135.186 28.3079C134.178 28.3079 133.328 27.9346 132.638 27.1879C131.966 26.4412 131.63 25.1906 131.63 23.4359C131.63 22.1292 131.798 20.8879 132.134 19.7119C132.47 18.5359 132.974 17.4999 133.646 16.6039C134.336 15.6892 135.195 14.9799 136.222 14.4759C137.248 13.9532 138.443 13.6919 139.806 13.6919ZM138.938 14.6999C138.098 14.6999 137.36 14.9332 136.726 15.3999C136.11 15.8666 135.596 16.5012 135.186 17.3039C134.775 18.0879 134.467 18.9746 134.262 19.9639C134.075 20.9346 133.982 21.9332 133.982 22.9599C133.982 24.1546 134.112 25.1439 134.374 25.9279C134.635 26.6932 135.111 27.0759 135.802 27.0759C136.306 27.0759 136.81 26.8239 137.314 26.3199C137.836 25.8159 138.322 25.1439 138.77 24.3039C139.218 23.4452 139.619 22.4932 139.974 21.4479C140.328 20.3839 140.608 19.3012 140.814 18.1999C141.019 17.0986 141.122 16.0439 141.122 15.0359C140.842 14.9239 140.515 14.8399 140.142 14.7839C139.768 14.7279 139.367 14.6999 138.938 14.6999Z" fill="#4A4A4A"/>
<path d="M132.157 8.3999L132.017 14.3079H130.953C130.99 13.2066 130.925 12.2919 130.757 11.5639C130.589 10.8359 130.253 10.2946 129.749 9.9399C129.264 9.56657 128.536 9.38924 127.565 9.4079L125.185 9.4359L124.261 24.6679C124.242 25.1719 124.214 25.6106 124.177 25.9839C124.14 26.3386 124.102 26.6372 124.065 26.8799C124.326 26.8612 124.588 26.8519 124.849 26.8519C125.11 26.8332 125.362 26.8146 125.605 26.7959C125.866 26.7772 126.128 26.7679 126.389 26.7679L126.333 27.9999H119.865L119.921 27.0759C120.537 27.0386 120.976 26.8706 121.237 26.5719C121.517 26.2732 121.704 25.8719 121.797 25.3679C121.89 24.8452 121.956 24.2666 121.993 23.6319L122.861 9.4359L119.977 9.4639C118.801 9.4639 117.952 9.8559 117.429 10.6399C116.906 11.4239 116.598 12.6466 116.505 14.3079H115.469L115.945 8.3999H132.157Z" fill="#4A4A4A"/>
<path d="M100.449 28.3079C99.7022 28.3079 98.9836 28.1959 98.2929 27.9719C97.6022 27.7292 97.0422 27.3839 96.6129 26.9359C96.1836 26.4879 95.9689 25.9466 95.9689 25.3119C95.9689 24.9012 96.0809 24.5746 96.3049 24.3319C96.5476 24.0706 96.8369 23.9399 97.1729 23.9399C97.5462 23.9399 97.8262 24.0612 98.0129 24.3039C98.2182 24.5466 98.3209 24.8172 98.3209 25.1159C98.3209 25.2466 98.3022 25.3866 98.2649 25.5359C98.2276 25.6852 98.1622 25.8346 98.0689 25.9839C98.2182 26.3946 98.5169 26.7119 98.9649 26.9359C99.4129 27.1599 99.8889 27.2719 100.393 27.2719C101.401 27.2719 102.157 27.0386 102.661 26.5719C103.165 26.1052 103.417 25.4519 103.417 24.6119C103.417 24.1079 103.24 23.6599 102.885 23.2679C102.53 22.8759 102.082 22.5119 101.541 22.1759C101 21.8212 100.44 21.4759 99.8609 21.1399C99.3196 20.8039 98.7969 20.4586 98.2929 20.1039C97.8076 19.7492 97.4062 19.3572 97.0889 18.9279C96.7902 18.4986 96.6409 18.0132 96.6409 17.4719C96.6409 16.7812 96.8462 16.1559 97.2569 15.5959C97.6676 15.0172 98.2369 14.5599 98.9649 14.2239C99.6929 13.8692 100.533 13.6919 101.485 13.6919C102.194 13.6919 102.857 13.8039 103.473 14.0279C104.108 14.2519 104.621 14.5692 105.013 14.9799C105.424 15.3906 105.629 15.8759 105.629 16.4359C105.629 16.8279 105.517 17.1452 105.293 17.3879C105.069 17.6119 104.789 17.7239 104.453 17.7239C104.117 17.7239 103.846 17.6119 103.641 17.3879C103.436 17.1639 103.333 16.9026 103.333 16.6039C103.333 16.4546 103.352 16.3146 103.389 16.1839C103.426 16.0346 103.492 15.8852 103.585 15.7359C103.492 15.4186 103.258 15.1572 102.885 14.9519C102.53 14.7279 102.036 14.6159 101.401 14.6159C100.99 14.6159 100.589 14.7092 100.197 14.8959C99.8049 15.0826 99.4782 15.3439 99.2169 15.6799C98.9556 15.9972 98.8249 16.3799 98.8249 16.8279C98.8249 17.1826 98.9276 17.5092 99.1329 17.8079C99.3569 18.1066 99.6462 18.3866 100.001 18.6479C100.356 18.9092 100.738 19.1706 101.149 19.4319C101.821 19.8239 102.512 20.2439 103.221 20.6919C103.93 21.1212 104.518 21.6159 104.985 22.1759C105.47 22.7359 105.713 23.4172 105.713 24.2199C105.713 25.0039 105.489 25.7039 105.041 26.3199C104.612 26.9359 103.996 27.4212 103.193 27.7759C102.409 28.1306 101.494 28.3079 100.449 28.3079Z" fill="#4A4A4A"/>
<path d="M94.2548 7.9519L93.6388 14.2519H91.7628L91.9028 7.9519H94.2548Z" fill="#4A4A4A"/>
<path d="M76.96 35.5879C76.3253 35.5506 75.812 35.3639 75.42 35.0279C75.028 34.7106 74.832 34.3092 74.832 33.8239C74.832 33.3946 74.9626 33.0679 75.224 32.8439C75.4853 32.6386 75.7373 32.5359 75.98 32.5359C76.82 32.5359 77.2213 33.0212 77.184 33.9919C77.296 34.0479 77.3986 34.0946 77.492 34.1319C77.5853 34.1692 77.688 34.1879 77.8 34.1879C78.2106 34.2066 78.6306 34.0572 79.06 33.7399C79.508 33.4226 79.928 33.0212 80.32 32.5359C80.7306 32.0692 81.0853 31.6026 81.384 31.1359C81.7013 30.6879 81.9346 30.3426 82.084 30.0999C81.916 29.0172 81.72 27.9066 81.496 26.7679C81.272 25.6106 81.0106 24.4626 80.712 23.3239C80.432 22.1666 80.1146 21.0559 79.76 19.9919C79.424 18.9092 79.06 17.8919 78.668 16.9399C78.5373 16.6226 78.3693 16.2959 78.164 15.9599C77.9586 15.6239 77.6693 15.4746 77.296 15.5119C76.9413 15.5492 76.6706 15.8292 76.484 16.3519C76.316 16.8746 76.2693 17.5652 76.344 18.4239L75.448 18.5359C75.392 18.0319 75.3826 17.4999 75.42 16.9399C75.476 16.3799 75.5973 15.8572 75.784 15.3719C75.9706 14.8679 76.2413 14.4666 76.596 14.1679C76.9506 13.8506 77.4173 13.6919 77.996 13.6919C78.6306 13.6919 79.144 13.8599 79.536 14.1959C79.9466 14.5319 80.2733 14.9426 80.516 15.4279C80.7773 15.9132 80.992 16.3892 81.16 16.8559C81.5146 17.8079 81.86 18.8999 82.196 20.1319C82.532 21.3639 82.8213 22.6239 83.064 23.9119C83.3253 25.1812 83.5213 26.3666 83.652 27.4679H83.708C84.2306 26.5532 84.7346 25.5452 85.22 24.4439C85.7053 23.3426 86.1066 22.2226 86.424 21.0839C86.7413 19.9266 86.9 18.8439 86.9 17.8359C86.9 17.3692 86.8533 16.9586 86.76 16.6039C86.6853 16.2492 86.592 15.9972 86.48 15.8479C86.4053 15.9039 86.3026 15.9506 86.172 15.9879C86.06 16.0066 85.9293 16.0159 85.78 16.0159C85.444 16.0159 85.1733 15.9132 84.968 15.7079C84.7626 15.4839 84.66 15.2226 84.66 14.9239C84.66 14.5132 84.7906 14.2052 85.052 13.9999C85.332 13.7946 85.64 13.6919 85.976 13.6919C86.5546 13.6919 87.0026 13.8692 87.32 14.2239C87.6373 14.5786 87.8613 15.0266 87.992 15.5679C88.1413 16.1092 88.216 16.6786 88.216 17.2759C88.216 18.5079 88.0386 19.7679 87.684 21.0559C87.3293 22.3439 86.8626 23.6132 86.284 24.8639C85.724 26.1146 85.1266 27.3186 84.492 28.4759C83.5586 30.1559 82.6626 31.5279 81.804 32.5919C80.964 33.6559 80.1426 34.4212 79.34 34.8879C78.5373 35.3732 77.744 35.6066 76.96 35.5879Z" fill="#4A4A4A"/>
<path d="M64.4807 28.3081C63.622 28.3081 62.9127 28.0748 62.3527 27.6081C61.7927 27.1228 61.3727 26.4788 61.0927 25.6761C60.8314 24.8548 60.7007 23.9588 60.7007 22.9881C60.7007 21.1588 60.9994 19.5534 61.5967 18.1721C62.2127 16.7721 63.1274 15.6801 64.3407 14.8961C65.554 14.0934 67.0567 13.6921 68.8487 13.6921C69.1287 13.6921 69.3994 13.7014 69.6607 13.7201C69.9221 13.7388 70.174 13.7668 70.4167 13.8041C70.4914 13.1321 70.5661 12.4601 70.6407 11.7881C70.7341 11.0974 70.818 10.4721 70.8927 9.91211C70.986 9.33344 71.0701 8.90411 71.1447 8.62411C70.8087 8.64277 70.4634 8.66144 70.1087 8.68011C69.7727 8.69877 69.4367 8.71744 69.1007 8.73611L69.2127 7.61611C70.034 7.61611 70.6687 7.57877 71.1167 7.50411C71.5834 7.42944 71.938 7.33611 72.1807 7.22411C72.4234 7.11211 72.6194 6.99077 72.7687 6.86011H73.5807C73.4127 7.86811 73.2354 9.10011 73.0487 10.5561C72.8807 11.9934 72.666 13.8228 72.4047 16.0441C72.274 17.2388 72.1434 18.4334 72.0127 19.6281C71.9007 20.8041 71.798 21.8961 71.7047 22.9041C71.63 23.9121 71.5927 24.7521 71.5927 25.4241C71.5927 25.7788 71.63 26.1148 71.7047 26.4321C71.7794 26.7494 71.994 26.9081 72.3487 26.9081C72.666 26.9081 73.0114 26.7028 73.3847 26.2921C73.758 25.8814 74.0847 25.1814 74.3647 24.1921L75.1767 24.3601C75.1207 24.6961 74.9994 25.0881 74.8127 25.5361C74.6447 25.9654 74.4114 26.3948 74.1127 26.8241C73.814 27.2534 73.4501 27.6081 73.0207 27.8881C72.5914 28.1681 72.0967 28.3081 71.5367 28.3081C70.79 28.3081 70.2394 28.0748 69.8847 27.6081C69.5487 27.1414 69.3807 26.5348 69.3807 25.7881C69.3807 25.2468 69.418 24.6868 69.4927 24.1081C69.5674 23.5108 69.67 22.8668 69.8007 22.1761H69.7167C69.2127 23.8748 68.6527 25.1721 68.0367 26.0681C67.4394 26.9454 66.8327 27.5428 66.2167 27.8601C65.6194 28.1588 65.0407 28.3081 64.4807 28.3081ZM65.0687 26.9921C65.666 26.9921 66.254 26.6561 66.8327 25.9841C67.43 25.3121 67.9714 24.4348 68.4567 23.3521C68.942 22.2694 69.3154 21.1214 69.5767 19.9081C69.7261 19.2548 69.8474 18.5268 69.9407 17.7241C70.0527 16.9214 70.1647 16.0068 70.2767 14.9801C69.978 14.8681 69.6607 14.7934 69.3247 14.7561C69.0074 14.7188 68.69 14.7001 68.3727 14.7001C67.5887 14.7001 66.898 14.8588 66.3007 15.1761C65.722 15.4934 65.2274 15.9228 64.8167 16.4641C64.406 17.0054 64.07 17.6121 63.8087 18.2841C63.566 18.9561 63.3887 19.6561 63.2767 20.3841C63.1647 21.1121 63.1087 21.8214 63.1087 22.5121C63.1087 23.7814 63.2487 24.8454 63.5287 25.7041C63.8274 26.5628 64.3407 26.9921 65.0687 26.9921Z" fill="#4A4A4A"/>
<path d="M48.9495 28.3081C48.0908 28.3081 47.3815 28.0748 46.8215 27.6081C46.2615 27.1228 45.8415 26.4788 45.5615 25.6761C45.3001 24.8548 45.1695 23.9588 45.1695 22.9881C45.1695 21.1588 45.4681 19.5534 46.0655 18.1721C46.6815 16.7721 47.5961 15.6801 48.8095 14.8961C50.0228 14.0934 51.5255 13.6921 53.3175 13.6921C53.5975 13.6921 53.8681 13.7014 54.1295 13.7201C54.3908 13.7388 54.6428 13.7668 54.8855 13.8041C54.9601 13.1321 55.0348 12.4601 55.1095 11.7881C55.2028 11.0974 55.2868 10.4721 55.3615 9.91211C55.4548 9.33344 55.5388 8.90411 55.6135 8.62411C55.2775 8.64277 54.9321 8.66144 54.5775 8.68011C54.2415 8.69877 53.9055 8.71744 53.5695 8.73611L53.6815 7.61611C54.5028 7.61611 55.1375 7.57877 55.5855 7.50411C56.0521 7.42944 56.4068 7.33611 56.6495 7.22411C56.8921 7.11211 57.0881 6.99077 57.2375 6.86011H58.0495C57.8815 7.86811 57.7041 9.10011 57.5175 10.5561C57.3495 11.9934 57.1348 13.8228 56.8735 16.0441C56.7428 17.2388 56.6121 18.4334 56.4815 19.6281C56.3695 20.8041 56.2668 21.8961 56.1735 22.9041C56.0988 23.9121 56.0615 24.7521 56.0615 25.4241C56.0615 25.7788 56.0988 26.1148 56.1735 26.4321C56.2481 26.7494 56.4628 26.9081 56.8175 26.9081C57.1348 26.9081 57.4801 26.7028 57.8535 26.2921C58.2268 25.8814 58.5535 25.1814 58.8335 24.1921L59.6455 24.3601C59.5895 24.6961 59.4681 25.0881 59.2815 25.5361C59.1135 25.9654 58.8801 26.3948 58.5815 26.8241C58.2828 27.2534 57.9188 27.6081 57.4895 27.8881C57.0601 28.1681 56.5655 28.3081 56.0055 28.3081C55.2588 28.3081 54.7081 28.0748 54.3535 27.6081C54.0175 27.1414 53.8495 26.5348 53.8495 25.7881C53.8495 25.2468 53.8868 24.6868 53.9615 24.1081C54.0361 23.5108 54.1388 22.8668 54.2695 22.1761H54.1855C53.6815 23.8748 53.1215 25.1721 52.5055 26.0681C51.9081 26.9454 51.3015 27.5428 50.6855 27.8601C50.0881 28.1588 49.5095 28.3081 48.9495 28.3081ZM49.5375 26.9921C50.1348 26.9921 50.7228 26.6561 51.3015 25.9841C51.8988 25.3121 52.4401 24.4348 52.9255 23.3521C53.4108 22.2694 53.7841 21.1214 54.0455 19.9081C54.1948 19.2548 54.3161 18.5268 54.4095 17.7241C54.5215 16.9214 54.6335 16.0068 54.7455 14.9801C54.4468 14.8681 54.1295 14.7934 53.7935 14.7561C53.4761 14.7188 53.1588 14.7001 52.8415 14.7001C52.0575 14.7001 51.3668 14.8588 50.7695 15.1761C50.1908 15.4934 49.6961 15.9228 49.2855 16.4641C48.8748 17.0054 48.5388 17.6121 48.2775 18.2841C48.0348 18.9561 47.8575 19.6561 47.7455 20.3841C47.6335 21.1121 47.5775 21.8214 47.5775 22.5121C47.5775 23.7814 47.7175 24.8454 47.9975 25.7041C48.2961 26.5628 48.8095 26.9921 49.5375 26.9921Z" fill="#4A4A4A"/>
<path d="M38.6577 13.6919C39.3297 13.6919 39.9644 13.7946 40.5617 13.9999C41.159 14.2052 41.6444 14.5412 42.0177 15.0079C42.391 15.4746 42.5777 16.1092 42.5777 16.9119C42.5777 17.6772 42.3164 18.3399 41.7937 18.8999C41.271 19.4599 40.5897 19.9266 39.7497 20.2999C38.9097 20.6546 38.0137 20.9439 37.0617 21.1679C36.1097 21.3919 35.195 21.5506 34.3177 21.6439C34.3177 22.8012 34.4297 23.7719 34.6537 24.5559C34.8964 25.3399 35.251 25.9279 35.7177 26.3199C36.1844 26.7119 36.7817 26.9079 37.5097 26.9079C38.051 26.9079 38.5924 26.7866 39.1337 26.5439C39.6937 26.3012 40.2257 25.9372 40.7297 25.4519C41.2337 24.9479 41.691 24.3039 42.1017 23.5199L43.0257 24.0519C42.503 25.0226 41.943 25.8252 41.3457 26.4599C40.7484 27.0946 40.095 27.5612 39.3857 27.8599C38.6764 28.1586 37.8924 28.3079 37.0337 28.3079C35.2604 28.3079 33.9537 27.7572 33.1137 26.6559C32.2737 25.5359 31.8537 24.0706 31.8537 22.2599C31.8537 21.1772 31.9937 20.1226 32.2737 19.0959C32.5537 18.0692 32.9737 17.1546 33.5337 16.3519C34.0937 15.5306 34.803 14.8866 35.6617 14.4199C36.5204 13.9346 37.519 13.6919 38.6577 13.6919ZM38.2657 14.6439C37.407 14.6439 36.6977 14.9332 36.1377 15.5119C35.5964 16.0906 35.1764 16.8372 34.8777 17.7519C34.5977 18.6666 34.4204 19.6279 34.3457 20.6359C35.335 20.5052 36.2777 20.2719 37.1737 19.9359C38.0697 19.5999 38.807 19.1706 39.3857 18.6479C39.9644 18.1066 40.2537 17.4812 40.2537 16.7719C40.2537 16.1746 40.0857 15.6706 39.7497 15.2599C39.4324 14.8492 38.9377 14.6439 38.2657 14.6439Z" fill="#4A4A4A"/>
<path d="M32.0515 8.3999L31.9115 14.3079H30.8475C30.8848 13.2066 30.8195 12.2919 30.6515 11.5639C30.4835 10.8359 30.1475 10.2946 29.6435 9.9399C29.1581 9.56657 28.4301 9.38924 27.4595 9.4079L25.0795 9.4359L24.1555 24.6679C24.1368 25.1719 24.1088 25.6106 24.0715 25.9839C24.0341 26.3386 23.9968 26.6372 23.9595 26.8799C24.2208 26.8612 24.4821 26.8519 24.7435 26.8519C25.0048 26.8332 25.2568 26.8146 25.4995 26.7959C25.7608 26.7772 26.0221 26.7679 26.2835 26.7679L26.2275 27.9999H19.7595L19.8155 27.0759C20.4315 27.0386 20.8701 26.8706 21.1315 26.5719C21.4115 26.2732 21.5981 25.8719 21.6915 25.3679C21.7848 24.8452 21.8501 24.2666 21.8875 23.6319L22.7555 9.4359L19.8715 9.4639C18.6955 9.4639 17.8461 9.8559 17.3235 10.6399C16.8008 11.4239 16.4928 12.6466 16.3995 14.3079H15.3635L15.8395 8.3999H32.0515Z" fill="#4A4A4A"/>
</svg>
