<svg width="47" height="50" viewBox="0 0 47 50" fill="none" xmlns="http://www.w3.org/2000/svg">
<path d="M43.4619 37.3575C39.0914 36.3862 38.3626 41.9712 38.3626 41.9712C38.3626 41.9712 34.7131 41.8328 34.1736 40.4385C33.9974 40.0859 33.4757 37.8457 32.8518 34.9885C34.8189 36.188 37.8779 37.5998 40.648 35.8187C44.4253 33.3897 42.2678 27.9943 38.4904 28.2648C36.1364 28.4332 33.2572 27.2391 30.9006 25.7258C30.8918 25.6817 30.882 25.6376 30.8724 25.5927C33.9351 23.2211 35.9083 19.5107 35.9083 15.3386C35.9083 14.1312 35.7399 13.0102 35.4315 11.9763C37.827 11.1294 39.5456 8.85205 39.5456 6.1666C39.5453 2.76211 36.7841 0 33.3778 0C30.5303 0 28.141 1.93193 27.4307 4.55645C26.032 4.15811 24.5205 3.95273 22.9421 3.95273C21.5849 3.95273 20.2752 4.10605 19.0458 4.40137C18.2853 1.85615 15.9304 0 13.1383 0C9.73291 0 6.97168 2.76211 6.97168 6.1666C6.97168 8.63691 8.42676 10.7609 10.5234 11.7463C10.1682 12.8417 9.9752 14.0421 9.9752 15.3385C9.9752 19.679 12.1107 23.5181 15.3857 25.8711C13.0731 27.313 10.3049 28.4278 8.02676 28.2648C4.24942 27.9943 2.09102 33.3897 5.86836 35.8187C8.62149 37.5883 11.6612 36.2046 13.6293 35.0104C13.0221 37.7919 12.5162 39.9917 12.3435 40.4385C11.804 41.8328 8.15362 41.9712 8.15362 41.9712C8.15362 41.9712 7.42569 36.3862 3.05518 37.3575C-0.168746 38.0739 -0.883492 41.438 1.1127 44.8839C3.78311 49.4976 5.4083 50.1207 8.88243 49.9832C11.9582 49.8625 19.4477 49.6563 23.2585 49.6563C27.0693 49.6563 34.5588 49.8625 37.6347 49.9832C41.1088 50.1207 42.734 49.4976 45.4044 44.8839C47.3996 41.438 46.6857 38.0739 43.4619 37.3575ZM23.2585 23.4026C19.7218 23.4026 16.8539 21.3491 16.8539 18.8171C16.8539 16.2842 19.7218 14.2308 23.2585 14.2308C26.7944 14.2308 29.6622 16.2843 29.6622 18.8171C29.6622 21.3491 26.7944 23.4026 23.2585 23.4026Z" fill="#C09094"/>
<path d="M23.2585 15.8125C21.9048 15.8125 20.8075 16.5555 20.8075 17.4729C20.8075 18.3896 21.9048 19.1324 23.2585 19.1324C24.6122 19.1324 25.7095 18.3896 25.7095 17.4729C25.7095 16.5555 24.6122 15.8125 23.2585 15.8125Z" fill="#C09094"/>
</svg>
